<svg xmlns="http://www.w3.org/2000/svg" version="1.1" xmlns:xlink="http://www.w3.org/1999/xlink" xmlns:svgjs="http://svgjs.dev/svgjs" width="1440" height="2000" preserveAspectRatio="none" viewBox="0 0 1440 2000"><rect id = "bg-bg" width="100%" height="100%" fill="#121212"/><g mask="url(&quot;#SvgjsMask1060&quot;)" fill="none"><path d="M648 1891L-206 1037" stroke-width="10" stroke="url(&quot;#SvgjsLinearGradient1061&quot;)" stroke-linecap="round" class="TopLeft"></path><path d="M1104 1966L269 1131" stroke-width="8" stroke="url(&quot;#SvgjsLinearGradient1062&quot;)" stroke-linecap="round" class="BottomRight"></path><path d="M949 703L1487 1241" stroke-width="8" stroke="url(&quot;#SvgjsLinearGradient1061&quot;)" stroke-linecap="round" class="TopLeft"></path><path d="M1253 1301L2169 2217" stroke-width="8" stroke="url(&quot;#SvgjsLinearGradient1063&quot;)" stroke-linecap="round" class="TopLeft"></path><path d="M1229 717L436 -76" stroke-width="8" stroke="url(&quot;#SvgjsLinearGradient1063&quot;)" stroke-linecap="round" class="TopLeft"></path><path d="M591 509L1535 1453" stroke-width="6" stroke="url(&quot;#SvgjsLinearGradient1062&quot;)" stroke-linecap="round" class="BottomRight"></path><path d="M1359 1516L844 1001" stroke-width="8" stroke="url(&quot;#SvgjsLinearGradient1062&quot;)" stroke-linecap="round" class="BottomRight"></path><path d="M1274 1087L349 162" stroke-width="6" stroke="url(&quot;#SvgjsLinearGradient1061&quot;)" stroke-linecap="round" class="TopLeft"></path><path d="M652 1793L216 1357" stroke-width="8" stroke="url(&quot;#SvgjsLinearGradient1063&quot;)" stroke-linecap="round" class="TopLeft"></path><path d="M1244 226L660 -358" stroke-width="6" stroke="url(&quot;#SvgjsLinearGradient1061&quot;)" stroke-linecap="round" class="TopLeft"></path><path d="M951 1427L359 835" stroke-width="6" stroke="url(&quot;#SvgjsLinearGradient1064&quot;)" stroke-linecap="round" class="BottomRight"></path><path d="M803 1111L1509 1817" stroke-width="10" stroke="url(&quot;#SvgjsLinearGradient1062&quot;)" stroke-linecap="round" class="BottomRight"></path><path d="M959 1565L1568 2174" stroke-width="10" stroke="url(&quot;#SvgjsLinearGradient1061&quot;)" stroke-linecap="round" class="TopLeft"></path><path d="M47 1164L702 1819" stroke-width="6" stroke="url(&quot;#SvgjsLinearGradient1063&quot;)" stroke-linecap="round" class="TopLeft"></path><path d="M1014 1061L561 608" stroke-width="6" stroke="url(&quot;#SvgjsLinearGradient1062&quot;)" stroke-linecap="round" class="BottomRight"></path><path d="M648 1036L-78 310" stroke-width="10" stroke="url(&quot;#SvgjsLinearGradient1062&quot;)" stroke-linecap="round" class="BottomRight"></path><path d="M613 1547L1520 2454" stroke-width="8" stroke="url(&quot;#SvgjsLinearGradient1064&quot;)" stroke-linecap="round" class="BottomRight"></path><path d="M22 1410L917 2305" stroke-width="10" stroke="url(&quot;#SvgjsLinearGradient1063&quot;)" stroke-linecap="round" class="TopLeft"></path><path d="M606 520L1541 1455" stroke-width="10" stroke="url(&quot;#SvgjsLinearGradient1061&quot;)" stroke-linecap="round" class="TopLeft"></path><path d="M11 735L-728 -4" stroke-width="10" stroke="url(&quot;#SvgjsLinearGradient1061&quot;)" stroke-linecap="round" class="TopLeft"></path><path d="M405 1675L1471 2741" stroke-width="6" stroke="url(&quot;#SvgjsLinearGradient1061&quot;)" stroke-linecap="round" class="TopLeft"></path><path d="M88 565L1157 1634" stroke-width="8" stroke="url(&quot;#SvgjsLinearGradient1061&quot;)" stroke-linecap="round" class="TopLeft"></path><path d="M918 1758L1664 2504" stroke-width="8" stroke="url(&quot;#SvgjsLinearGradient1064&quot;)" stroke-linecap="round" class="BottomRight"></path><path d="M1182 474L682 -26" stroke-width="6" stroke="url(&quot;#SvgjsLinearGradient1064&quot;)" stroke-linecap="round" class="BottomRight"></path><path d="M444 1567L-43 1080" stroke-width="8" stroke="url(&quot;#SvgjsLinearGradient1063&quot;)" stroke-linecap="round" class="TopLeft"></path><path d="M1177 1356L801 980" stroke-width="8" stroke="url(&quot;#SvgjsLinearGradient1062&quot;)" stroke-linecap="round" class="BottomRight"></path><path d="M1424 1133L2489 2198" stroke-width="10" stroke="url(&quot;#SvgjsLinearGradient1064&quot;)" stroke-linecap="round" class="BottomRight"></path><path d="M1000 1154L2 156" stroke-width="6" stroke="url(&quot;#SvgjsLinearGradient1063&quot;)" stroke-linecap="round" class="TopLeft"></path><path d="M1303 1013L1861 1571" stroke-width="8" stroke="url(&quot;#SvgjsLinearGradient1062&quot;)" stroke-linecap="round" class="BottomRight"></path><path d="M1181 1535L1687 2041" stroke-width="6" stroke="url(&quot;#SvgjsLinearGradient1064&quot;)" stroke-linecap="round" class="BottomRight"></path><path d="M1388 956L2292 1860" stroke-width="8" stroke="url(&quot;#SvgjsLinearGradient1063&quot;)" stroke-linecap="round" class="TopLeft"></path><path d="M880 64L455 -361" stroke-width="10" stroke="url(&quot;#SvgjsLinearGradient1062&quot;)" stroke-linecap="round" class="BottomRight"></path><path d="M1305 325L889 -91" stroke-width="10" stroke="url(&quot;#SvgjsLinearGradient1062&quot;)" stroke-linecap="round" class="BottomRight"></path><path d="M200 370L584 754" stroke-width="10" stroke="url(&quot;#SvgjsLinearGradient1062&quot;)" stroke-linecap="round" class="BottomRight"></path><path d="M399 1767L1331 2699" stroke-width="8" stroke="url(&quot;#SvgjsLinearGradient1063&quot;)" stroke-linecap="round" class="TopLeft"></path><path d="M789 604L136 -49" stroke-width="8" stroke="url(&quot;#SvgjsLinearGradient1062&quot;)" stroke-linecap="round" class="BottomRight"></path><path d="M339 1845L-407 1099" stroke-width="6" stroke="url(&quot;#SvgjsLinearGradient1063&quot;)" stroke-linecap="round" class="TopLeft"></path><path d="M939 713L1704 1478" stroke-width="8" stroke="url(&quot;#SvgjsLinearGradient1061&quot;)" stroke-linecap="round" class="TopLeft"></path><path d="M863 849L1741 1727" stroke-width="8" stroke="url(&quot;#SvgjsLinearGradient1061&quot;)" stroke-linecap="round" class="TopLeft"></path><path d="M32 1542L-503 1007" stroke-width="10" stroke="url(&quot;#SvgjsLinearGradient1062&quot;)" stroke-linecap="round" class="BottomRight"></path><path d="M1324 1463L1820 1959" stroke-width="10" stroke="url(&quot;#SvgjsLinearGradient1061&quot;)" stroke-linecap="round" class="TopLeft"></path><path d="M706 1076L-366 4" stroke-width="8" stroke="url(&quot;#SvgjsLinearGradient1062&quot;)" stroke-linecap="round" class="BottomRight"></path><path d="M201 580L-567 -188" stroke-width="6" stroke="url(&quot;#SvgjsLinearGradient1062&quot;)" stroke-linecap="round" class="BottomRight"></path><path d="M348 919L914 1485" stroke-width="10" stroke="url(&quot;#SvgjsLinearGradient1063&quot;)" stroke-linecap="round" class="TopLeft"></path><path d="M1213 759L1854 1400" stroke-width="8" stroke="url(&quot;#SvgjsLinearGradient1063&quot;)" stroke-linecap="round" class="TopLeft"></path><path d="M37 294L-367 -110" stroke-width="8" stroke="url(&quot;#SvgjsLinearGradient1061&quot;)" stroke-linecap="round" class="TopLeft"></path><path d="M836 877L1551 1592" stroke-width="10" stroke="url(&quot;#SvgjsLinearGradient1064&quot;)" stroke-linecap="round" class="BottomRight"></path><path d="M417 428L-625 -614" stroke-width="8" stroke="url(&quot;#SvgjsLinearGradient1064&quot;)" stroke-linecap="round" class="BottomRight"></path><path d="M1287 1323L1840 1876" stroke-width="10" stroke="url(&quot;#SvgjsLinearGradient1064&quot;)" stroke-linecap="round" class="BottomRight"></path><path d="M596 922L1560 1886" stroke-width="6" stroke="url(&quot;#SvgjsLinearGradient1064&quot;)" stroke-linecap="round" class="BottomRight"></path><path d="M1228 1319L2195 2286" stroke-width="8" stroke="url(&quot;#SvgjsLinearGradient1064&quot;)" stroke-linecap="round" class="BottomRight"></path><path d="M412 1240L1118 1946" stroke-width="8" stroke="url(&quot;#SvgjsLinearGradient1062&quot;)" stroke-linecap="round" class="BottomRight"></path><path d="M1177 366L614 -197" stroke-width="6" stroke="url(&quot;#SvgjsLinearGradient1061&quot;)" stroke-linecap="round" class="TopLeft"></path><path d="M429 635L-425 -219" stroke-width="10" stroke="url(&quot;#SvgjsLinearGradient1064&quot;)" stroke-linecap="round" class="BottomRight"></path><path d="M1349 499L945 95" stroke-width="6" stroke="url(&quot;#SvgjsLinearGradient1062&quot;)" stroke-linecap="round" class="BottomRight"></path><path d="M1413 958L2204 1749" stroke-width="8" stroke="url(&quot;#SvgjsLinearGradient1061&quot;)" stroke-linecap="round" class="TopLeft"></path><path d="M773 941L-34 134" stroke-width="6" stroke="url(&quot;#SvgjsLinearGradient1061&quot;)" stroke-linecap="round" class="TopLeft"></path><path d="M897 1733L1260 2096" stroke-width="10" stroke="url(&quot;#SvgjsLinearGradient1061&quot;)" stroke-linecap="round" class="TopLeft"></path><path d="M69 1856L437 2224" stroke-width="6" stroke="url(&quot;#SvgjsLinearGradient1061&quot;)" stroke-linecap="round" class="TopLeft"></path><path d="M343 1141L1367 2165" stroke-width="8" stroke="url(&quot;#SvgjsLinearGradient1063&quot;)" stroke-linecap="round" class="TopLeft"></path><path d="M811 182L186 -443" stroke-width="10" stroke="url(&quot;#SvgjsLinearGradient1062&quot;)" stroke-linecap="round" class="BottomRight"></path><path d="M1185 764L795 374" stroke-width="8" stroke="url(&quot;#SvgjsLinearGradient1064&quot;)" stroke-linecap="round" class="BottomRight"></path></g><defs><mask id="SvgjsMask1060"><rect width="1440" height="2000" fill="#ffffff"></rect></mask><linearGradient x1="100%" y1="100%" x2="0%" y2="0%" id="SvgjsLinearGradient1061"><stop stop-color="rgba(0, 69, 2, 0)" offset="0"></stop><stop stop-color="rgba(0, 69, 2, 1)" offset="1"></stop></linearGradient><linearGradient x1="0%" y1="0%" x2="100%" y2="100%" id="SvgjsLinearGradient1062"><stop stop-color="rgba(0, 69, 2, 0)" offset="0"></stop><stop stop-color="rgba(0, 69, 2, 1)" offset="1"></stop></linearGradient><linearGradient x1="100%" y1="100%" x2="0%" y2="0%" id="SvgjsLinearGradient1063"><stop stop-color="rgba(118, 0, 255, 0)" offset="0"></stop><stop stop-color="rgba(118, 0, 255, 1)" offset="1"></stop></linearGradient><linearGradient x1="0%" y1="0%" x2="100%" y2="100%" id="SvgjsLinearGradient1064"><stop stop-color="rgba(118, 0, 255, 0)" offset="0"></stop><stop stop-color="rgba(118, 0, 255, 1)" offset="1"></stop></linearGradient></defs></svg>